<?xml version="1.0" encoding="UTF-8" standalone="no"?>
<!DOCTYPE svg PUBLIC "-//W3C//DTD SVG 1.1//EN" "http://www.w3.org/Graphics/SVG/1.1/DTD/svg11.dtd">
<svg xmlns="http://www.w3.org/2000/svg" xmlns:xlink="http://www.w3.org/1999/xlink" version="1.1" width="281.897pt" height="89.728pt" viewBox="0 0 281.897 89.728">
<g enable-background="new">
<text xml:space="preserve" transform="matrix(1 0 -0 1 -.00000023841859 89.728)" font-size="11.9552" font-family="CMR12"><tspan y="-78.105" x="3.32 7.540186 14.043816 17.618422 22.818934 28.019446 32.57438 35.826196 41.684244 52.085268 56.699975 61.254907 67.11295 71.667888 80.77775 85.33268 89.88761 95.74566 102.24929 106.864 110.115818 114.670749 117.92256 123.78061 130.2723">Infectionstatetransitions</tspan></text>
<path transform="matrix(1,0,0,-1,40.753,18.662995)" stroke-width=".3985" stroke-linecap="butt" stroke-miterlimit="10" stroke-linejoin="miter" fill="none" stroke="#000000" d="M 14.17339 -35.43349 C 14.17339 -27.60565 7.82784 -21.2601 0 -21.2601 C -7.82784 -21.2601 -14.17339 -27.60565 -14.17339 -35.43349 C -14.17339 -43.26134 -7.82784 -49.60689 0 -49.60689 C 7.82784 -49.60689 14.17339 -43.26134 14.17339 -35.43349 Z M 0 -35.43349 "/>
<text xml:space="preserve" transform="matrix(1 0 -0 1 0 89.728)" font-size="9.9626" font-family="CMMI10" font-style="italic"><tspan y="-32.228" x="37.411">S</tspan></text>
<path transform="matrix(1,0,0,-1,40.753,18.662995)" stroke-width=".3985" stroke-linecap="butt" stroke-miterlimit="10" stroke-linejoin="miter" fill="none" stroke="#000000" d="M 70.867 -35.43349 C 70.867 -27.60565 64.52145 -21.2601 56.69362 -21.2601 C 48.86577 -21.2601 42.52022 -27.60565 42.52022 -35.43349 C 42.52022 -43.26134 48.86577 -49.60689 56.69362 -49.60689 C 64.52145 -49.60689 70.867 -43.26134 70.867 -35.43349 Z M 56.69362 -35.43349 "/>
<text xml:space="preserve" transform="matrix(1 0 -0 1 -.0000076293949 89.728)" font-size="9.9626" font-family="CMMI10" font-style="italic"><tspan y="-32.228" x="93.482">E</tspan></text>
<path transform="matrix(1,0,0,-1,40.753,18.662995)" stroke-width=".3985" stroke-linecap="butt" stroke-miterlimit="10" stroke-linejoin="miter" fill="none" stroke="#000000" d="M 127.56062 -35.43349 C 127.56062 -27.60565 121.21507 -21.2601 113.38724 -21.2601 C 105.55939 -21.2601 99.21384 -27.60565 99.21384 -35.43349 C 99.21384 -43.26134 105.55939 -49.60689 113.38724 -49.60689 C 121.21507 -49.60689 127.56062 -43.26134 127.56062 -35.43349 Z M 113.38724 -35.43349 "/>
<text xml:space="preserve" transform="matrix(1 0 -0 1 0 89.728)" font-size="9.9626" font-family="CMMI10" font-style="italic"><tspan y="-32.976" x="149.81">I</tspan></text>
<text xml:space="preserve" transform="matrix(1 0 -0 1 0 89.728)" font-size="6.9738" font-family="CMMI7" font-style="italic"><tspan y="-31.481" x="154.19">e</tspan></text>
<path transform="matrix(1,0,0,-1,40.753,18.662995)" stroke-width=".3985" stroke-linecap="butt" stroke-miterlimit="10" stroke-linejoin="miter" fill="none" stroke="#000000" d="M 184.25424 -35.43349 C 184.25424 -27.60565 177.9087 -21.2601 170.08086 -21.2601 C 162.253 -21.2601 155.90746 -27.60565 155.90746 -35.43349 C 155.90746 -43.26134 162.253 -49.60689 170.08086 -49.60689 C 177.9087 -49.60689 184.25424 -43.26134 184.25424 -35.43349 Z M 170.08086 -35.43349 "/>
<text xml:space="preserve" transform="matrix(1 0 -0 1 -.000015258789 89.728)" font-size="9.9626" font-family="CMMI10" font-style="italic"><tspan y="-33.654" x="206.339">I</tspan></text>
<text xml:space="preserve" transform="matrix(1 0 -0 1 -.000015258789 89.728)" font-size="6.9738" font-family="CMMI7" font-style="italic"><tspan y="-32.159" x="210.71901">p</tspan></text>
<path transform="matrix(1,0,0,-1,40.753,18.662995)" stroke-width=".3985" stroke-linecap="butt" stroke-miterlimit="10" stroke-linejoin="miter" fill="none" stroke="#000000" d="M 240.94788 -14.17339 C 240.94788 -6.34554 234.60233 0 226.77448 0 C 218.94663 0 212.60108 -6.34554 212.60108 -14.17339 C 212.60108 -22.00124 218.94663 -28.34679 226.77448 -28.34679 C 234.60233 -28.34679 240.94788 -22.00124 240.94788 -14.17339 Z M 226.77448 -14.17339 "/>
<text xml:space="preserve" transform="matrix(1 0 -0 1 0 89.728)" font-size="9.9626" font-family="CMMI10" font-style="italic"><tspan y="-53.488" x="263.262">D</tspan></text>
<path transform="matrix(1,0,0,-1,40.753,18.662995)" stroke-width=".3985" stroke-linecap="butt" stroke-miterlimit="10" stroke-linejoin="miter" fill="none" stroke="#000000" d="M 240.94788 -56.69362 C 240.94788 -48.86577 234.60233 -42.52022 226.77448 -42.52022 C 218.94663 -42.52022 212.60108 -48.86577 212.60108 -56.69362 C 212.60108 -64.52145 218.94663 -70.867 226.77448 -70.867 C 234.60233 -70.867 240.94788 -64.52145 240.94788 -56.69362 Z M 226.77448 -56.69362 "/>
<text xml:space="preserve" transform="matrix(1 0 -0 1 0 89.728)" font-size="9.9626" font-family="CMMI10" font-style="italic"><tspan y="-10.969" x="263.704">R</tspan></text>
<path transform="matrix(1,0,0,-1,40.753,18.662995)" stroke-width=".79701" stroke-linecap="butt" stroke-miterlimit="10" stroke-linejoin="miter" fill="none" stroke="#000000" d="M 15.36551 -35.43349 L 40.70673 -35.43349 "/>
<path transform="matrix(1,0,0,-1,81.45973,54.096487)" stroke-width=".6376" stroke-linecap="round" stroke-linejoin="round" fill="none" stroke="#000000" d="M -1.55415 2.0722 C -1.42464 1.29512 0 .1295 .38852 0 C 0 -.1295 -1.42464 -1.29512 -1.55415 -2.0722 "/>
<path transform="matrix(1,0,0,-1,40.753,18.662995)" stroke-width=".79701" stroke-linecap="butt" stroke-miterlimit="10" stroke-linejoin="miter" fill="none" stroke="#000000" d="M 72.68181 -35.43349 L 97.03589 -35.43349 "/>
<path transform="matrix(1,0,0,-1,137.78888,54.096487)" stroke-width=".6376" stroke-linecap="round" stroke-linejoin="round" fill="none" stroke="#000000" d="M -1.55415 2.0722 C -1.42464 1.29512 0 .1295 .38852 0 C 0 -.1295 -1.42464 -1.29512 -1.55415 -2.0722 "/>
<path transform="matrix(1,0,0,-1,40.753,18.662995)" stroke-width=".79701" stroke-linecap="butt" stroke-miterlimit="10" stroke-linejoin="miter" fill="none" stroke="#000000" d="M 128.32254 -35.43349 L 154.27468 -35.43349 "/>
<path transform="matrix(1,0,0,-1,195.02768,54.096487)" stroke-width=".6376" stroke-linecap="round" stroke-linejoin="round" fill="none" stroke="#000000" d="M -1.55415 2.0722 C -1.42464 1.29512 0 .1295 .38852 0 C 0 -.1295 -1.42464 -1.29512 -1.55415 -2.0722 "/>
<path transform="matrix(1,0,0,-1,40.753,18.662995)" stroke-width=".79701" stroke-linecap="butt" stroke-miterlimit="10" stroke-linejoin="miter" fill="none" stroke="#000000" d="M 184.72788 -40.92468 L 212.1367 -51.20558 "/>
<path transform="matrix(.93625,.35117,.35117,-.93625,252.88968,69.868579)" stroke-width=".6376" stroke-linecap="round" stroke-linejoin="round" fill="none" stroke="#000000" d="M -1.55415 2.0722 C -1.42464 1.29512 0 .1295 .38852 0 C 0 -.1295 -1.42464 -1.29512 -1.55415 -2.0722 "/>
<path transform="matrix(1,0,0,-1,40.753,18.662995)" stroke-width=".79701" stroke-linecap="butt" stroke-miterlimit="10" stroke-linejoin="miter" fill="none" stroke="#000000" d="M 184.72788 -29.94218 L 211.69495 -19.82698 "/>
<path transform="matrix(.93625,-.35117,-.35117,-.93625,252.44794,38.489976)" stroke-width=".6376" stroke-linecap="round" stroke-linejoin="round" fill="none" stroke="#000000" d="M -1.55415 2.0722 C -1.42464 1.29512 0 .1295 .38852 0 C 0 -.1295 -1.42464 -1.29512 -1.55415 -2.0722 "/>
</g>
</svg>
